<svg width="34" height="31" viewBox="0 0 34 31" fill="none" xmlns="http://www.w3.org/2000/svg">
<g clip-path="url(#clip0_73_23)">
<path d="M29.75 13C29.75 21.75 17 29.25 17 29.25C17 29.25 4.25 21.75 4.25 13C4.25 10.0163 5.5933 7.15483 7.98439 5.04505C10.3755 2.93526 13.6185 1.75 17 1.75C20.3815 1.75 23.6245 2.93526 26.0156 5.04505C28.4067 7.15483 29.75 10.0163 29.75 13Z" stroke="black" stroke-width="2" stroke-linecap="round" stroke-linejoin="round"/>
<path d="M17 16.75C19.3472 16.75 21.25 15.0711 21.25 13C21.25 10.9289 19.3472 9.25 17 9.25C14.6528 9.25 12.75 10.9289 12.75 13C12.75 15.0711 14.6528 16.75 17 16.75Z" stroke="black" stroke-width="2" stroke-linecap="round" stroke-linejoin="round"/>
</g>
<defs>
<clipPath id="clip0_73_23">
<rect width="34" height="30" fill="white" transform="translate(0 0.5)"/>
</clipPath>
</defs>
</svg>
